<svg xmlns="http://www.w3.org/2000/svg" viewBox="0 0 612 612">
	<path d="M 598.221,531.586 487.641,421.044 C 517.955,377.601 535.869,324.895 535.869,267.939 535.869,119.963 415.911,0.005 267.935,0.005 119.959,0.005 0,119.963 0,267.939 c 0,147.976 119.958,267.934 267.934,267.934 56.956,0 109.662,-17.913 153.105,-48.228 l 110.542,110.542 c 18.411,18.41 48.229,18.41 66.64,0 18.372,-18.373 18.372,-48.19 0,-66.601 z M 267.934,459.32 c -105.681,0 -191.381,-85.7 -191.381,-191.381 0,-105.681 85.701,-191.381 191.381,-191.381 105.681,0 191.381,85.701 191.381,191.381 0,105.681 -85.7,191.381 -191.381,191.381 z" />
</svg>